<?xml version="1.0" encoding="UTF-8"?>
<!DOCTYPE svg PUBLIC "-//W3C//DTD SVG 1.1//EN" "http://www.w3.org/Graphics/SVG/1.1/DTD/svg11.dtd">
<!-- Creator: CorelDRAW -->
<svg xmlns="http://www.w3.org/2000/svg" xml:space="preserve" width="380px" height="109px" version="1.1" style="shape-rendering:geometricPrecision; text-rendering:geometricPrecision; image-rendering:optimizeQuality; fill-rule:evenodd; clip-rule:evenodd"
viewBox="0 0 381.7 109.53"
 xmlns:xlink="http://www.w3.org/1999/xlink"
 xmlns:xodm="http://www.corel.com/coreldraw/odm/2003">
 <defs>
  <style type="text/css">
   <![CDATA[
    .fil0 {fill:#FEFEFE}
    .fil1 {fill:#FEFEFE;fill-rule:nonzero}
   ]]>
  </style>
 </defs>
 <g id="Layer_x0020_1">
  <metadata id="CorelCorpID_0Corel-Layer"/>
  <path class="fil0" d="M67.8 27.43c3.73,1.7 7.41,5.35 8.96,9.96 2.16,6.42 1.38,10.2 0.63,16.63 15.57,-10.5 14.89,-37.11 -3.56,-48.24 -15.12,-9.12 -34.39,-6.79 -49.47,2.41 -8.46,5.15 -17.97,17.39 -20.73,25.79 -3.39,10.32 -4.56,21.41 -2.84,31.9 0.97,5.9 2.98,11.73 5.9,16.64 6.36,10.72 11.7,17.32 22.35,24.64 1.26,0.87 1.56,1.39 3.27,1.53 -1,-1.88 -2.6,-3.92 -3.91,-5.68 -2.18,-2.92 -3.85,-6.2 -5.45,-9.42 -0.56,-1.13 -1.15,-2.03 -1.68,-3.11 -3.32,-6.75 -5.77,-15.38 -6.24,-23.52 -0.16,-2.9 0.69,-9.69 1.64,-12.75l2.92 -7.16c1.61,-3 3.8,-6.45 6.12,-8.73 9.54,-9.43 20.78,-15.33 34.76,-13.42 2.35,0.32 5.83,1.11 7.33,2.53z"/>
  <path class="fil0" d="M77.39 54.02c0.75,-6.43 1.53,-10.21 -0.63,-16.63 -1.55,-4.61 -5.23,-8.26 -8.96,-9.96 1.01,5.3 1.94,7.52 -0.54,14.07 -4.2,11.12 -16.37,18.39 -28.24,21.16l-3.21 0.78c7.43,0.85 14.69,1.24 25.18,-1.36 6.29,-1.56 12.07,-4.32 16.4,-8.06z"/>
  <path class="fil1" d="M116.2 83.82c-1.84,0 -2.75,-0.92 -2.75,-2.75l0 -38.9c0,-1.84 0.91,-2.76 2.75,-2.76l23.51 0c1.83,0 2.75,0.92 2.75,2.76 0,1.83 -0.92,2.75 -2.75,2.75l-20.76 0 0 13.75 13.03 0c1.83,0 2.75,0.92 2.75,2.75 0,1.83 -0.92,2.75 -2.75,2.75l-13.03 0 0 14.15 20.76 0c1.83,0 2.75,0.91 2.75,2.75 0,1.83 -0.92,2.75 -2.75,2.75l-23.51 0z"/>
  <path class="fil1" d="M155.69 83.82c-1.84,0 -2.75,-0.92 -2.75,-2.75l0 -38.9c0,-1.84 0.91,-2.76 2.75,-2.76l15.32 0c4,0 7.06,1.07 9.19,3.19 2.12,2.14 3.19,5.2 3.19,9.19l0 1.97c0,3.99 -1.07,7.05 -3.19,9.18 -2.13,2.14 -5.19,3.19 -9.19,3.19l-12.57 0 0 14.94c0,1.83 -0.92,2.75 -2.75,2.75zm2.75 -23.19l12.57 0c2.49,0 4.26,-0.52 5.31,-1.57 1.05,-1.05 1.57,-2.81 1.57,-5.3l0 -1.97c0,-2.46 -0.52,-4.22 -1.57,-5.29 -1.05,-1.05 -2.82,-1.58 -5.31,-1.58l-12.57 0 0 15.71z"/>
  <path class="fil1" d="M195.83 83.82c-0.93,0 -1.62,-0.23 -2.07,-0.68 -0.45,-0.44 -0.68,-1.13 -0.68,-2.07l0 -38.84c0,-0.96 0.23,-1.66 0.68,-2.1 0.45,-0.43 1.14,-0.65 2.07,-0.65 0.96,0 1.66,0.22 2.1,0.65 0.44,0.44 0.66,1.14 0.66,2.1l0 38.84c0,0.94 -0.22,1.63 -0.66,2.07 -0.44,0.45 -1.14,0.68 -2.1,0.68z"/>
  <path class="fil1" d="M225.31 83.82c-5,0 -8.69,-1.2 -11.08,-3.59 -2.39,-2.39 -3.6,-6.08 -3.6,-11.08l0 -15.07c0,-5.04 1.19,-8.75 3.57,-11.15 2.38,-2.38 6.06,-3.56 11.04,-3.52l7.92 0c4.11,0 7.24,0.86 9.4,2.54 2.16,1.7 3.42,4.36 3.77,8.01 0.13,0.92 -0.05,1.61 -0.53,2.09 -0.48,0.48 -1.17,0.73 -2.09,0.73 -1.66,0 -2.62,-0.92 -2.88,-2.76 -0.22,-2 -0.92,-3.36 -2.08,-4.06 -1.17,-0.69 -3.03,-1.04 -5.59,-1.04l-7.92 0c-2.31,-0.03 -4.13,0.24 -5.45,0.78 -1.32,0.55 -2.26,1.5 -2.81,2.83 -0.57,1.34 -0.84,3.2 -0.84,5.55l0 15.07c0,2.33 0.27,4.17 0.84,5.5 0.55,1.33 1.49,2.27 2.82,2.83 1.34,0.55 3.17,0.84 5.51,0.84l7.85 0c2.56,0 4.42,-0.36 5.59,-1.07 1.16,-0.71 1.86,-2.06 2.08,-4.04 0.26,-1.84 1.22,-2.75 2.88,-2.75 0.92,0 1.61,0.24 2.09,0.72 0.48,0.48 0.66,1.18 0.53,2.09 -0.35,3.67 -1.61,6.35 -3.77,8.03 -2.16,1.68 -5.29,2.52 -9.4,2.52l-7.85 0z"/>
  <path class="fil1" d="M270.89 83.82c-5,0 -8.69,-1.2 -11.08,-3.59 -2.39,-2.39 -3.59,-6.08 -3.59,-11.08l0 -15.13c0,-5.04 1.2,-8.74 3.6,-11.12 2.4,-2.36 6.09,-3.53 11.07,-3.49l7.86 0c5.02,0 8.72,1.19 11.1,3.57 2.38,2.38 3.57,6.08 3.57,11.1l0 15.07c0,5 -1.19,8.69 -3.57,11.08 -2.38,2.39 -6.08,3.59 -11.1,3.59l-7.86 0zm0 -5.5l7.86 0c2.33,0 4.17,-0.29 5.5,-0.84 1.33,-0.56 2.27,-1.5 2.84,-2.83 0.54,-1.33 0.83,-3.17 0.83,-5.5l0 -15.07c0,-2.31 -0.29,-4.13 -0.83,-5.47 -0.57,-1.33 -1.51,-2.28 -2.84,-2.84 -1.33,-0.57 -3.17,-0.85 -5.5,-0.85l-7.86 0c-2.31,-0.03 -4.14,0.24 -5.47,0.78 -1.33,0.55 -2.28,1.49 -2.85,2.82 -0.57,1.33 -0.85,3.16 -0.85,5.5l0 15.13c0,2.33 0.27,4.17 0.84,5.5 0.56,1.33 1.49,2.27 2.83,2.83 1.33,0.55 3.16,0.84 5.5,0.84z"/>
  <path class="fil1" d="M308.22 83.82c-1.83,0 -2.75,-0.92 -2.75,-2.75l0 -38.9c0,-1.84 0.92,-2.76 2.75,-2.76l15.78 0c5.7,0 9.89,1.36 12.6,4.04 2.68,2.71 4.04,6.9 4.04,12.6l0 11.13c0,5.7 -1.34,9.89 -4.01,12.59 -2.68,2.69 -6.89,4.05 -12.63,4.05l-15.78 0zm2.75 -5.5l13.03 0c2.8,0 5.01,-0.35 6.64,-1.04 1.61,-0.69 2.77,-1.85 3.47,-3.47 0.68,-1.63 1.03,-3.83 1.03,-6.63l0 -11.13c0,-2.77 -0.35,-4.98 -1.03,-6.61 -0.7,-1.61 -1.86,-2.78 -3.47,-3.48 -1.63,-0.69 -3.84,-1.04 -6.64,-1.04l-13.03 0 0 33.4z"/>
  <path class="fil1" d="M355.44 83.82c-1.83,0 -2.75,-0.92 -2.75,-2.75l0 -38.9c0,-1.84 0.92,-2.76 2.75,-2.76l23.51 0c1.83,0 2.75,0.92 2.75,2.76 0,1.83 -0.92,2.75 -2.75,2.75l-20.76 0 0 13.75 13.03 0c1.84,0 2.75,0.92 2.75,2.75 0,1.83 -0.91,2.75 -2.75,2.75l-13.03 0 0 14.15 20.76 0c1.83,0 2.75,0.91 2.75,2.75 0,1.83 -0.92,2.75 -2.75,2.75l-23.51 0z"/>
  <path class="fil1" d="M88.08 71.35l0 5.88 -9.36 0 -0.82 12.26c-0.17,2.15 -0.25,3.97 -0.25,5.55 0,3.81 0.41,6.04 1.32,6.87 0.91,0.83 1.91,1.24 3.15,1.24 2.65,0 4.14,-1.65 4.64,-4.88l1.41 0c-0.92,7.53 -3.9,11.26 -9.03,11.26 -2.32,0 -4.22,-0.75 -5.71,-2.15 -1.41,-1.5 -2.16,-3.65 -2.16,-6.55 0,-1.82 0.33,-5.88 0.83,-11.92l1.16 -11.68 -8.61 0c-0.58,9.86 -1.25,16.98 -1.99,21.53 -0.83,4.56 -1.74,7.46 -2.65,8.78 -0.99,1.33 -2.24,1.99 -3.89,1.99 -1.24,0 -2.24,-0.33 -3.15,-1.08 -0.83,-0.74 -1.24,-1.74 -1.24,-2.9 0,-1.16 0.74,-2.65 2.15,-4.63 2.16,-2.9 3.73,-5.88 4.72,-8.95 1.08,-3.06 1.91,-8.03 2.4,-14.74l-2.73 0c-2.23,0 -3.89,0.5 -5.13,1.49 -1.16,1 -2.24,2.4 -3.32,4.23l-1.4 0c0.83,-2.9 1.82,-5.22 3.06,-7.12 1.24,-1.83 2.49,-3.07 3.81,-3.65 1.33,-0.58 3.64,-0.83 6.96,-0.83l25.83 0z"/>
 </g>
</svg>
